<svg viewBox="0 0 494 500" fill="none" xmlns="http://www.w3.org/2000/svg">
<g filter="url(#filter0_d_1_82)">
<path fill-rule="evenodd" clip-rule="evenodd" d="M488.642 272.165C475.737 395.726 372.475 492 247 492C211.069 492 176.959 484.105 146.271 469.936C176.18 469.075 205.97 459.698 234.529 446.145C284.836 422.27 334.864 383.474 378.335 349.762L378.338 349.76C391.882 339.257 404.789 329.247 416.87 320.336L417.35 319.983L417.799 319.592C427.374 311.28 444.712 298.497 462.695 287.115C472.038 281.201 480.937 276.067 488.642 272.165ZM489.896 238.739C476.577 243.85 460.823 252.795 446.65 261.766C428.045 273.542 409.662 286.999 398.592 296.54C385.399 306.284 371.795 316.827 357.858 327.629L357.857 327.629C314.874 360.942 268.723 396.71 221.667 419.042C190.811 433.685 161.119 441.692 133.248 439.698C111.546 438.146 90.0535 430.473 69.158 413.639C28.7319 369.707 4 310.777 4 246C4 245.211 4.00367 244.423 4.01099 243.636C17.0736 262.418 36.1557 275.158 58.2502 283.198C104.398 299.991 166.556 297.392 227.546 284.617C288.991 271.747 351.686 248.033 400.07 220.115C424.246 206.166 445.35 190.881 460.988 174.968C465.933 169.937 470.487 164.683 474.455 159.239C483.704 184.075 489.097 210.824 489.896 238.739ZM27.1051 224.194C18.578 210.716 14.0905 192.313 16.7729 167.085C49.256 69.9312 140.061 0 247 0C337.91 0 417.16 50.5381 458.831 125.376C456.318 133.459 450.241 143.104 439.591 153.94C426.467 167.295 407.806 181.016 385.077 194.131C339.653 220.34 279.98 242.983 221.395 255.254C162.354 267.621 106.82 268.948 68.5089 255.007C49.6831 248.156 35.7858 237.914 27.1051 224.194Z" fill="#DCC823"/>
</g>
<g filter="url(#filter1_d_1_82)">
<path fill-rule="evenodd" clip-rule="evenodd" d="M446.65 261.766C460.823 252.795 476.577 243.85 489.896 238.739C489.097 210.824 483.704 184.075 474.455 159.239C470.487 164.683 465.933 169.937 460.988 174.968C445.35 190.881 424.246 206.166 400.07 220.115C351.686 248.033 288.991 271.747 227.546 284.617C166.556 297.392 104.398 299.991 58.2502 283.198C36.1557 275.158 17.0736 262.418 4.01099 243.636C4.00367 244.423 4 245.211 4 246C4 310.777 28.7319 369.707 69.158 413.639C90.0535 430.473 111.546 438.146 133.248 439.698C161.119 441.692 190.811 433.685 221.667 419.042C268.723 396.71 314.874 360.942 357.857 327.629L357.858 327.629L357.858 327.628C371.795 316.827 385.399 306.284 398.592 296.54C409.662 286.999 428.045 273.542 446.65 261.766Z" fill="#2337DC"/>
</g>
<defs>
<filter id="filter0_d_1_82" x="0" y="0" width="493.896" height="500" filterUnits="userSpaceOnUse" color-interpolation-filters="sRGB">
<feFlood flood-opacity="0" result="BackgroundImageFix"/>
<feColorMatrix in="SourceAlpha" type="matrix" values="0 0 0 0 0 0 0 0 0 0 0 0 0 0 0 0 0 0 127 0" result="hardAlpha"/>
<feOffset dy="4"/>
<feGaussianBlur stdDeviation="2"/>
<feComposite in2="hardAlpha" operator="out"/>
<feColorMatrix type="matrix" values="0 0 0 0 0 0 0 0 0 0 0 0 0 0 0 0 0 0 0.25 0"/>
<feBlend mode="normal" in2="BackgroundImageFix" result="effect1_dropShadow_1_82"/>
<feBlend mode="normal" in="SourceGraphic" in2="effect1_dropShadow_1_82" result="shape"/>
</filter>
<filter id="filter1_d_1_82" x="0" y="159.239" width="493.896" height="288.761" filterUnits="userSpaceOnUse" color-interpolation-filters="sRGB">
<feFlood flood-opacity="0" result="BackgroundImageFix"/>
<feColorMatrix in="SourceAlpha" type="matrix" values="0 0 0 0 0 0 0 0 0 0 0 0 0 0 0 0 0 0 127 0" result="hardAlpha"/>
<feOffset dy="4"/>
<feGaussianBlur stdDeviation="2"/>
<feComposite in2="hardAlpha" operator="out"/>
<feColorMatrix type="matrix" values="0 0 0 0 0 0 0 0 0 0 0 0 0 0 0 0 0 0 0.25 0"/>
<feBlend mode="normal" in2="BackgroundImageFix" result="effect1_dropShadow_1_82"/>
<feBlend mode="normal" in="SourceGraphic" in2="effect1_dropShadow_1_82" result="shape"/>
</filter>
</defs>
</svg>
